<?xml version="1.0" encoding="utf-8" standalone="no"?>
<!DOCTYPE svg PUBLIC "-//W3C//DTD SVG 1.1//EN"
  "http://www.w3.org/Graphics/SVG/1.1/DTD/svg11.dtd">
<!-- Created with matplotlib (https://matplotlib.org/) -->
<svg height="288pt" version="1.1" viewBox="0 0 360 288" width="360pt" xmlns="http://www.w3.org/2000/svg" xmlns:xlink="http://www.w3.org/1999/xlink">
 <metadata>
  <rdf:RDF xmlns:cc="http://creativecommons.org/ns#" xmlns:dc="http://purl.org/dc/elements/1.1/" xmlns:rdf="http://www.w3.org/1999/02/22-rdf-syntax-ns#">
   <cc:Work>
    <dc:type rdf:resource="http://purl.org/dc/dcmitype/StillImage"/>
    <dc:date>2021-01-03T12:10:47.309844</dc:date>
    <dc:format>image/svg+xml</dc:format>
    <dc:creator>
     <cc:Agent>
      <dc:title>Matplotlib v3.3.3, https://matplotlib.org/</dc:title>
     </cc:Agent>
    </dc:creator>
   </cc:Work>
  </rdf:RDF>
 </metadata>
 <defs>
  <style type="text/css">*{stroke-linecap:butt;stroke-linejoin:round;}</style>
 </defs>
 <g id="figure_1">
  <g id="patch_1">
   <path d="M 0 288 
L 360 288 
L 360 0 
L 0 0 
z
" style="fill:#ffffff;"/>
  </g>
  <g id="axes_1">
   <g id="patch_2">
    <path d="M 49.808 259.4 
L 243.526 259.4 
L 243.526 26.88 
L 49.808 26.88 
z
" style="fill:#ffffff;"/>
   </g>
   <g id="matplotlib.axis_1">
    <g id="xtick_1">
     <g id="line2d_1">
      <defs>
       <path d="M 0 0 
L 0 3.5 
" id="mfbeb11dee7" style="stroke:#000000;stroke-width:0.8;"/>
      </defs>
      <g>
       <use style="stroke:#000000;stroke-width:0.8;" x="49.808" xlink:href="#mfbeb11dee7" y="259.4"/>
      </g>
     </g>
     <g id="text_1">
      <!-- Γ -->
      <g transform="translate(46.464875 275.518125)scale(0.12 -0.12)">
       <defs>
        <path d="M 9.8125 0 
L 9.8125 72.90625 
L 55.171875 72.90625 
L 55.171875 64.59375 
L 19.671875 64.59375 
L 19.671875 0 
z
" id="DejaVuSans-915"/>
       </defs>
       <use xlink:href="#DejaVuSans-915"/>
      </g>
     </g>
    </g>
    <g id="xtick_2">
     <g id="line2d_2">
      <g>
       <use style="stroke:#000000;stroke-width:0.8;" x="130.604955" xlink:href="#mfbeb11dee7" y="259.4"/>
      </g>
     </g>
     <g id="text_2">
      <!-- K -->
      <g transform="translate(126.670267 275.518125)scale(0.12 -0.12)">
       <defs>
        <path d="M 9.8125 72.90625 
L 19.671875 72.90625 
L 19.671875 42.09375 
L 52.390625 72.90625 
L 65.09375 72.90625 
L 28.90625 38.921875 
L 67.671875 0 
L 54.6875 0 
L 19.671875 35.109375 
L 19.671875 0 
L 9.8125 0 
z
" id="DejaVuSans-75"/>
       </defs>
       <use xlink:href="#DejaVuSans-75"/>
      </g>
     </g>
    </g>
    <g id="xtick_3">
     <g id="line2d_3">
      <g>
       <use style="stroke:#000000;stroke-width:0.8;" x="171.490161" xlink:href="#mfbeb11dee7" y="259.4"/>
      </g>
     </g>
     <g id="text_3">
      <!-- M -->
      <g transform="translate(166.313286 275.518125)scale(0.12 -0.12)">
       <defs>
        <path d="M 9.8125 72.90625 
L 24.515625 72.90625 
L 43.109375 23.296875 
L 61.8125 72.90625 
L 76.515625 72.90625 
L 76.515625 0 
L 66.890625 0 
L 66.890625 64.015625 
L 48.09375 14.015625 
L 38.1875 14.015625 
L 19.390625 64.015625 
L 19.390625 0 
L 9.8125 0 
z
" id="DejaVuSans-77"/>
       </defs>
       <use xlink:href="#DejaVuSans-77"/>
      </g>
     </g>
    </g>
    <g id="xtick_4">
     <g id="line2d_4">
      <g>
       <use style="stroke:#000000;stroke-width:0.8;" x="243.526" xlink:href="#mfbeb11dee7" y="259.4"/>
      </g>
     </g>
     <g id="text_4">
      <!-- Γ -->
      <g transform="translate(240.182875 275.518125)scale(0.12 -0.12)">
       <use xlink:href="#DejaVuSans-915"/>
      </g>
     </g>
    </g>
   </g>
   <g id="matplotlib.axis_2">
    <g id="ytick_1">
     <g id="line2d_5">
      <defs>
       <path d="M 0 0 
L -3.5 0 
" id="m0e47c6afbd" style="stroke:#000000;stroke-width:0.8;"/>
      </defs>
      <g>
       <use style="stroke:#000000;stroke-width:0.8;" x="49.808" xlink:href="#m0e47c6afbd" y="259.4"/>
      </g>
     </g>
     <g id="text_5">
      <!-- −5 -->
      <g transform="translate(28.065813 263.199219)scale(0.1 -0.1)">
       <defs>
        <path d="M 10.59375 35.5 
L 73.1875 35.5 
L 73.1875 27.203125 
L 10.59375 27.203125 
z
" id="DejaVuSans-8722"/>
        <path d="M 10.796875 72.90625 
L 49.515625 72.90625 
L 49.515625 64.59375 
L 19.828125 64.59375 
L 19.828125 46.734375 
Q 21.96875 47.46875 24.109375 47.828125 
Q 26.265625 48.1875 28.421875 48.1875 
Q 40.625 48.1875 47.75 41.5 
Q 54.890625 34.8125 54.890625 23.390625 
Q 54.890625 11.625 47.5625 5.09375 
Q 40.234375 -1.421875 26.90625 -1.421875 
Q 22.3125 -1.421875 17.546875 -0.640625 
Q 12.796875 0.140625 7.71875 1.703125 
L 7.71875 11.625 
Q 12.109375 9.234375 16.796875 8.0625 
Q 21.484375 6.890625 26.703125 6.890625 
Q 35.15625 6.890625 40.078125 11.328125 
Q 45.015625 15.765625 45.015625 23.390625 
Q 45.015625 31 40.078125 35.4375 
Q 35.15625 39.890625 26.703125 39.890625 
Q 22.75 39.890625 18.8125 39.015625 
Q 14.890625 38.140625 10.796875 36.28125 
z
" id="DejaVuSans-53"/>
       </defs>
       <use xlink:href="#DejaVuSans-8722"/>
       <use x="83.789062" xlink:href="#DejaVuSans-53"/>
      </g>
     </g>
    </g>
    <g id="ytick_2">
     <g id="line2d_6">
      <g>
       <use style="stroke:#000000;stroke-width:0.8;" x="49.808" xlink:href="#m0e47c6afbd" y="233.564444"/>
      </g>
     </g>
     <g id="text_6">
      <!-- −4 -->
      <g transform="translate(28.065813 237.363663)scale(0.1 -0.1)">
       <defs>
        <path d="M 37.796875 64.3125 
L 12.890625 25.390625 
L 37.796875 25.390625 
z
M 35.203125 72.90625 
L 47.609375 72.90625 
L 47.609375 25.390625 
L 58.015625 25.390625 
L 58.015625 17.1875 
L 47.609375 17.1875 
L 47.609375 0 
L 37.796875 0 
L 37.796875 17.1875 
L 4.890625 17.1875 
L 4.890625 26.703125 
z
" id="DejaVuSans-52"/>
       </defs>
       <use xlink:href="#DejaVuSans-8722"/>
       <use x="83.789062" xlink:href="#DejaVuSans-52"/>
      </g>
     </g>
    </g>
    <g id="ytick_3">
     <g id="line2d_7">
      <g>
       <use style="stroke:#000000;stroke-width:0.8;" x="49.808" xlink:href="#m0e47c6afbd" y="207.728889"/>
      </g>
     </g>
     <g id="text_7">
      <!-- −3 -->
      <g transform="translate(28.065813 211.528108)scale(0.1 -0.1)">
       <defs>
        <path d="M 40.578125 39.3125 
Q 47.65625 37.796875 51.625 33 
Q 55.609375 28.21875 55.609375 21.1875 
Q 55.609375 10.40625 48.1875 4.484375 
Q 40.765625 -1.421875 27.09375 -1.421875 
Q 22.515625 -1.421875 17.65625 -0.515625 
Q 12.796875 0.390625 7.625 2.203125 
L 7.625 11.71875 
Q 11.71875 9.328125 16.59375 8.109375 
Q 21.484375 6.890625 26.8125 6.890625 
Q 36.078125 6.890625 40.9375 10.546875 
Q 45.796875 14.203125 45.796875 21.1875 
Q 45.796875 27.640625 41.28125 31.265625 
Q 36.765625 34.90625 28.71875 34.90625 
L 20.21875 34.90625 
L 20.21875 43.015625 
L 29.109375 43.015625 
Q 36.375 43.015625 40.234375 45.921875 
Q 44.09375 48.828125 44.09375 54.296875 
Q 44.09375 59.90625 40.109375 62.90625 
Q 36.140625 65.921875 28.71875 65.921875 
Q 24.65625 65.921875 20.015625 65.03125 
Q 15.375 64.15625 9.8125 62.3125 
L 9.8125 71.09375 
Q 15.4375 72.65625 20.34375 73.4375 
Q 25.25 74.21875 29.59375 74.21875 
Q 40.828125 74.21875 47.359375 69.109375 
Q 53.90625 64.015625 53.90625 55.328125 
Q 53.90625 49.265625 50.4375 45.09375 
Q 46.96875 40.921875 40.578125 39.3125 
z
" id="DejaVuSans-51"/>
       </defs>
       <use xlink:href="#DejaVuSans-8722"/>
       <use x="83.789062" xlink:href="#DejaVuSans-51"/>
      </g>
     </g>
    </g>
    <g id="ytick_4">
     <g id="line2d_8">
      <g>
       <use style="stroke:#000000;stroke-width:0.8;" x="49.808" xlink:href="#m0e47c6afbd" y="181.893333"/>
      </g>
     </g>
     <g id="text_8">
      <!-- −2 -->
      <g transform="translate(28.065813 185.692552)scale(0.1 -0.1)">
       <defs>
        <path d="M 19.1875 8.296875 
L 53.609375 8.296875 
L 53.609375 0 
L 7.328125 0 
L 7.328125 8.296875 
Q 12.9375 14.109375 22.625 23.890625 
Q 32.328125 33.6875 34.8125 36.53125 
Q 39.546875 41.84375 41.421875 45.53125 
Q 43.3125 49.21875 43.3125 52.78125 
Q 43.3125 58.59375 39.234375 62.25 
Q 35.15625 65.921875 28.609375 65.921875 
Q 23.96875 65.921875 18.8125 64.3125 
Q 13.671875 62.703125 7.8125 59.421875 
L 7.8125 69.390625 
Q 13.765625 71.78125 18.9375 73 
Q 24.125 74.21875 28.421875 74.21875 
Q 39.75 74.21875 46.484375 68.546875 
Q 53.21875 62.890625 53.21875 53.421875 
Q 53.21875 48.921875 51.53125 44.890625 
Q 49.859375 40.875 45.40625 35.40625 
Q 44.1875 33.984375 37.640625 27.21875 
Q 31.109375 20.453125 19.1875 8.296875 
z
" id="DejaVuSans-50"/>
       </defs>
       <use xlink:href="#DejaVuSans-8722"/>
       <use x="83.789062" xlink:href="#DejaVuSans-50"/>
      </g>
     </g>
    </g>
    <g id="ytick_5">
     <g id="line2d_9">
      <g>
       <use style="stroke:#000000;stroke-width:0.8;" x="49.808" xlink:href="#m0e47c6afbd" y="156.057778"/>
      </g>
     </g>
     <g id="text_9">
      <!-- −1 -->
      <g transform="translate(28.065813 159.856997)scale(0.1 -0.1)">
       <defs>
        <path d="M 12.40625 8.296875 
L 28.515625 8.296875 
L 28.515625 63.921875 
L 10.984375 60.40625 
L 10.984375 69.390625 
L 28.421875 72.90625 
L 38.28125 72.90625 
L 38.28125 8.296875 
L 54.390625 8.296875 
L 54.390625 0 
L 12.40625 0 
z
" id="DejaVuSans-49"/>
       </defs>
       <use xlink:href="#DejaVuSans-8722"/>
       <use x="83.789062" xlink:href="#DejaVuSans-49"/>
      </g>
     </g>
    </g>
    <g id="ytick_6">
     <g id="line2d_10">
      <g>
       <use style="stroke:#000000;stroke-width:0.8;" x="49.808" xlink:href="#m0e47c6afbd" y="130.222222"/>
      </g>
     </g>
     <g id="text_10">
      <!-- 0 -->
      <g transform="translate(36.4455 134.021441)scale(0.1 -0.1)">
       <defs>
        <path d="M 31.78125 66.40625 
Q 24.171875 66.40625 20.328125 58.90625 
Q 16.5 51.421875 16.5 36.375 
Q 16.5 21.390625 20.328125 13.890625 
Q 24.171875 6.390625 31.78125 6.390625 
Q 39.453125 6.390625 43.28125 13.890625 
Q 47.125 21.390625 47.125 36.375 
Q 47.125 51.421875 43.28125 58.90625 
Q 39.453125 66.40625 31.78125 66.40625 
z
M 31.78125 74.21875 
Q 44.046875 74.21875 50.515625 64.515625 
Q 56.984375 54.828125 56.984375 36.375 
Q 56.984375 17.96875 50.515625 8.265625 
Q 44.046875 -1.421875 31.78125 -1.421875 
Q 19.53125 -1.421875 13.0625 8.265625 
Q 6.59375 17.96875 6.59375 36.375 
Q 6.59375 54.828125 13.0625 64.515625 
Q 19.53125 74.21875 31.78125 74.21875 
z
" id="DejaVuSans-48"/>
       </defs>
       <use xlink:href="#DejaVuSans-48"/>
      </g>
     </g>
    </g>
    <g id="ytick_7">
     <g id="line2d_11">
      <g>
       <use style="stroke:#000000;stroke-width:0.8;" x="49.808" xlink:href="#m0e47c6afbd" y="104.386667"/>
      </g>
     </g>
     <g id="text_11">
      <!-- 1 -->
      <g transform="translate(36.4455 108.185885)scale(0.1 -0.1)">
       <use xlink:href="#DejaVuSans-49"/>
      </g>
     </g>
    </g>
    <g id="ytick_8">
     <g id="line2d_12">
      <g>
       <use style="stroke:#000000;stroke-width:0.8;" x="49.808" xlink:href="#m0e47c6afbd" y="78.551111"/>
      </g>
     </g>
     <g id="text_12">
      <!-- 2 -->
      <g transform="translate(36.4455 82.35033)scale(0.1 -0.1)">
       <use xlink:href="#DejaVuSans-50"/>
      </g>
     </g>
    </g>
    <g id="ytick_9">
     <g id="line2d_13">
      <g>
       <use style="stroke:#000000;stroke-width:0.8;" x="49.808" xlink:href="#m0e47c6afbd" y="52.715556"/>
      </g>
     </g>
     <g id="text_13">
      <!-- 3 -->
      <g transform="translate(36.4455 56.514774)scale(0.1 -0.1)">
       <use xlink:href="#DejaVuSans-51"/>
      </g>
     </g>
    </g>
    <g id="ytick_10">
     <g id="line2d_14">
      <g>
       <use style="stroke:#000000;stroke-width:0.8;" x="49.808" xlink:href="#m0e47c6afbd" y="26.88"/>
      </g>
     </g>
     <g id="text_14">
      <!-- 4 -->
      <g transform="translate(36.4455 30.679219)scale(0.1 -0.1)">
       <use xlink:href="#DejaVuSans-52"/>
      </g>
     </g>
    </g>
    <g id="text_15">
     <!-- $E-E{_F}$ (eV)  -->
     <g transform="translate(21.570188 177.04)rotate(-90)scale(0.12 -0.12)">
      <defs>
       <path d="M 16.890625 72.90625 
L 62.984375 72.90625 
L 61.375 64.59375 
L 25.09375 64.59375 
L 20.90625 43.015625 
L 55.71875 43.015625 
L 54.109375 34.71875 
L 19.28125 34.71875 
L 14.203125 8.296875 
L 51.3125 8.296875 
L 49.703125 0 
L 2.6875 0 
z
" id="DejaVuSans-Oblique-69"/>
       <path d="M 16.890625 72.90625 
L 58.6875 72.90625 
L 57.078125 64.59375 
L 25.09375 64.59375 
L 20.90625 43.109375 
L 49.8125 43.109375 
L 48.1875 34.8125 
L 19.28125 34.8125 
L 12.5 0 
L 2.6875 0 
z
" id="DejaVuSans-Oblique-70"/>
       <path id="DejaVuSans-32"/>
       <path d="M 31 75.875 
Q 24.46875 64.65625 21.28125 53.65625 
Q 18.109375 42.671875 18.109375 31.390625 
Q 18.109375 20.125 21.3125 9.0625 
Q 24.515625 -2 31 -13.1875 
L 23.1875 -13.1875 
Q 15.875 -1.703125 12.234375 9.375 
Q 8.59375 20.453125 8.59375 31.390625 
Q 8.59375 42.28125 12.203125 53.3125 
Q 15.828125 64.359375 23.1875 75.875 
z
" id="DejaVuSans-40"/>
       <path d="M 56.203125 29.59375 
L 56.203125 25.203125 
L 14.890625 25.203125 
Q 15.484375 15.921875 20.484375 11.0625 
Q 25.484375 6.203125 34.421875 6.203125 
Q 39.59375 6.203125 44.453125 7.46875 
Q 49.3125 8.734375 54.109375 11.28125 
L 54.109375 2.78125 
Q 49.265625 0.734375 44.1875 -0.34375 
Q 39.109375 -1.421875 33.890625 -1.421875 
Q 20.796875 -1.421875 13.15625 6.1875 
Q 5.515625 13.8125 5.515625 26.8125 
Q 5.515625 40.234375 12.765625 48.109375 
Q 20.015625 56 32.328125 56 
Q 43.359375 56 49.78125 48.890625 
Q 56.203125 41.796875 56.203125 29.59375 
z
M 47.21875 32.234375 
Q 47.125 39.59375 43.09375 43.984375 
Q 39.0625 48.390625 32.421875 48.390625 
Q 24.90625 48.390625 20.390625 44.140625 
Q 15.875 39.890625 15.1875 32.171875 
z
" id="DejaVuSans-101"/>
       <path d="M 28.609375 0 
L 0.78125 72.90625 
L 11.078125 72.90625 
L 34.1875 11.53125 
L 57.328125 72.90625 
L 67.578125 72.90625 
L 39.796875 0 
z
" id="DejaVuSans-86"/>
       <path d="M 8.015625 75.875 
L 15.828125 75.875 
Q 23.140625 64.359375 26.78125 53.3125 
Q 30.421875 42.28125 30.421875 31.390625 
Q 30.421875 20.453125 26.78125 9.375 
Q 23.140625 -1.703125 15.828125 -13.1875 
L 8.015625 -13.1875 
Q 14.5 -2 17.703125 9.0625 
Q 20.90625 20.125 20.90625 31.390625 
Q 20.90625 42.671875 17.703125 53.65625 
Q 14.5 64.65625 8.015625 75.875 
z
" id="DejaVuSans-41"/>
      </defs>
      <use transform="translate(0 0.125)" xlink:href="#DejaVuSans-Oblique-69"/>
      <use transform="translate(82.666016 0.125)" xlink:href="#DejaVuSans-8722"/>
      <use transform="translate(185.9375 0.125)" xlink:href="#DejaVuSans-Oblique-69"/>
      <use transform="translate(250.078125 -16.28125)scale(0.7)" xlink:href="#DejaVuSans-Oblique-70"/>
      <use transform="translate(293.076172 0.125)" xlink:href="#DejaVuSans-32"/>
      <use transform="translate(324.863281 0.125)" xlink:href="#DejaVuSans-40"/>
      <use transform="translate(363.876953 0.125)" xlink:href="#DejaVuSans-101"/>
      <use transform="translate(425.400391 0.125)" xlink:href="#DejaVuSans-86"/>
      <use transform="translate(493.808594 0.125)" xlink:href="#DejaVuSans-41"/>
      <use transform="translate(532.822266 0.125)" xlink:href="#DejaVuSans-32"/>
     </g>
    </g>
   </g>
   <g id="line2d_15">
    <path clip-path="url(#p104ea5dbbb)" d="M 0 0 
" style="fill:none;stroke:#ff0000;stroke-linecap:square;stroke-width:1.2;"/>
   </g>
   <g id="line2d_16">
    <path clip-path="url(#p104ea5dbbb)" d="M 0 0 
" style="fill:none;stroke:#ff0000;stroke-linecap:square;stroke-width:1.2;"/>
   </g>
   <g id="line2d_17">
    <path clip-path="url(#p104ea5dbbb)" d="M 0 0 
" style="fill:none;stroke:#ff0000;stroke-linecap:square;stroke-width:1.2;"/>
   </g>
   <g id="line2d_18">
    <path clip-path="url(#p104ea5dbbb)" d="M 0 0 
" style="fill:none;stroke:#ff0000;stroke-linecap:square;stroke-width:1.2;"/>
   </g>
   <g id="line2d_19">
    <path clip-path="url(#p104ea5dbbb)" d="M 0 0 
" style="fill:none;stroke:#ff0000;stroke-linecap:square;stroke-width:1.2;"/>
   </g>
   <g id="line2d_20">
    <path clip-path="url(#p104ea5dbbb)" d="M 0 0 
" style="fill:none;stroke:#ff0000;stroke-linecap:square;stroke-width:1.2;"/>
   </g>
   <g id="line2d_21">
    <path clip-path="url(#p104ea5dbbb)" d="M 72.729168 289 
L 78.038261 285.132213 
L 80.958633 283.323724 
L 82.905548 282.367809 
L 84.852462 281.670249 
L 86.799377 281.308551 
L 88.746291 281.25688 
L 90.693206 281.541071 
L 92.640121 282.057782 
L 95.560492 283.142876 
L 101.401236 285.390569 
L 103.348151 285.958951 
L 105.295065 286.346484 
L 107.24198 286.553169 
L 109.188894 286.527333 
L 111.135809 286.268978 
L 113.082724 285.752267 
L 114.056181 285.390569 
L 115.029638 285.597253 
L 116.976553 287.431578 
L 118.849092 289 
M 145.727068 289 
L 146.180271 288.723356 
L 147.153729 288.516671 
L 147.597908 289 
M 196.181186 289 
L 198.746965 286.940702 
L 200.693879 285.597253 
L 202.640794 284.486324 
L 204.587709 283.711258 
L 206.534623 283.297889 
L 207.50808 283.220382 
L 209.454995 283.401231 
L 211.40191 283.943778 
L 213.348824 284.796351 
L 215.295739 285.855609 
L 220.039767 289 
L 220.039767 289 
" style="fill:none;stroke:#ff0000;stroke-linecap:square;stroke-width:1.2;"/>
   </g>
   <g id="line2d_22">
    <path clip-path="url(#p104ea5dbbb)" d="M 49.808 222.067622 
L 51.754915 222.222636 
L 53.701829 222.739347 
L 55.648744 223.566084 
L 57.595658 224.728684 
L 59.542573 226.14964 
L 61.489487 227.828951 
L 63.436402 229.714947 
L 66.356774 232.866884 
L 70.250603 237.439778 
L 75.117889 243.278613 
L 78.038261 246.508058 
L 79.985176 248.445724 
L 81.93209 250.125036 
L 83.879005 251.49432 
L 85.82592 252.450236 
L 86.799377 252.786098 
L 88.746291 253.12196 
L 90.693206 253.070289 
L 92.640121 252.734427 
L 93.613578 253.922862 
L 101.401236 267.176502 
L 105.295065 273.299529 
L 108.215437 277.484889 
L 111.135809 281.25688 
L 114.056181 284.589667 
L 115.029638 284.9772 
L 116.976553 283.917942 
L 118.923467 282.626164 
L 121.843839 280.249293 
L 124.764211 277.484889 
L 127.684583 274.694649 
L 129.631497 273.273693 
L 130.604955 272.834489 
L 131.578412 272.705311 
L 132.551869 272.860324 
L 133.525327 273.299529 
L 134.498784 273.997089 
L 136.445698 275.883084 
L 138.392613 278.079107 
L 146.180271 287.405742 
L 147.153729 288.129138 
L 158.835216 281.076031 
L 161.755588 279.758418 
L 163.702503 279.035022 
L 165.649417 278.46664 
L 168.569789 277.924093 
L 170.516704 277.76908 
L 173.437075 277.614067 
L 175.38399 277.278204 
L 177.330905 276.709822 
L 179.277819 275.934756 
L 181.224734 274.927169 
L 183.171648 273.738733 
L 185.118563 272.343613 
L 188.038935 269.915071 
L 190.959307 267.098996 
L 193.879678 263.972893 
L 197.773508 259.374164 
L 201.667337 254.646258 
L 203.614251 254.310396 
L 205.561166 253.742013 
L 207.50808 252.863604 
L 209.454995 251.649333 
L 211.40191 250.125036 
L 213.348824 248.342382 
L 216.269196 245.21628 
L 220.163025 240.643387 
L 226.977226 232.582693 
L 229.897598 229.482427 
L 232.81797 226.795529 
L 234.764884 225.297067 
L 236.711799 224.05696 
L 238.658714 223.075209 
L 240.605628 222.42932 
L 242.552543 222.093458 
L 243.526 222.067622 
L 243.526 222.067622 
" style="fill:none;stroke:#ff0000;stroke-linecap:square;stroke-width:1.2;"/>
   </g>
   <g id="line2d_23">
    <path clip-path="url(#p104ea5dbbb)" d="M 49.808 222.067622 
L 52.728372 221.886773 
L 54.675286 221.576747 
L 57.595658 220.853351 
L 60.51603 219.794093 
L 63.436402 218.424809 
L 64.409859 217.908098 
L 65.383317 217.701413 
L 69.277146 222.713511 
L 74.144432 228.629853 
L 79.011719 234.158662 
L 83.879005 239.609964 
L 86.799377 243.252778 
L 89.719749 247.515644 
L 92.640121 252.269387 
L 93.613578 252.450236 
L 96.53395 251.416813 
L 100.427779 249.840844 
L 103.348151 248.807422 
L 106.268523 248.032356 
L 108.215437 247.722329 
L 110.162352 247.54148 
L 113.082724 247.618987 
L 115.029638 247.929013 
L 116.976553 248.47156 
L 117.95001 248.833258 
L 119.896925 249.892516 
L 121.843839 251.365142 
L 123.790754 253.225302 
L 127.684583 257.203978 
L 128.65804 258.056551 
L 129.631497 258.70244 
L 130.604955 259.141644 
L 131.578412 259.270822 
L 132.551869 259.141644 
L 133.525327 258.728276 
L 135.472241 257.436498 
L 137.419156 256.170556 
L 138.392613 255.67968 
L 139.36607 255.317982 
L 141.312985 254.956284 
L 143.259899 254.930449 
L 146.180271 255.266311 
L 149.100643 255.834693 
L 163.702503 258.831618 
L 167.596332 259.244987 
L 170.516704 259.4 
L 173.437075 259.348329 
L 176.357447 259.038302 
L 179.277819 258.521591 
L 186.09202 256.790609 
L 189.985849 255.860529 
L 193.879678 255.240476 
L 197.773508 254.930449 
L 200.693879 254.7496 
L 201.667337 254.413738 
L 207.50808 246.482222 
L 214.322281 236.897231 
L 227.950683 217.727249 
L 228.924141 218.01144 
L 231.844513 219.432396 
L 234.764884 220.56916 
L 237.685256 221.395898 
L 239.632171 221.757596 
L 242.552543 222.041787 
L 243.526 222.067622 
L 243.526 222.067622 
" style="fill:none;stroke:#ff0000;stroke-linecap:square;stroke-width:1.2;"/>
   </g>
   <g id="line2d_24">
    <path clip-path="url(#p104ea5dbbb)" d="M 49.808 200.1074 
L 50.781457 200.314084 
L 51.754915 200.908302 
L 52.728372 201.73504 
L 54.675286 203.853556 
L 57.595658 207.444698 
L 64.409859 216.435471 
L 65.383317 217.365551 
L 70.250603 214.265284 
L 73.170975 212.172604 
L 74.144432 213.025178 
L 78.038261 219.277382 
L 83.879005 228.681524 
L 85.82592 231.445929 
L 87.772834 233.8228 
L 89.719749 235.760467 
L 91.666663 237.258929 
L 93.613578 238.369858 
L 95.560492 239.17076 
L 97.507407 239.713307 
L 99.454322 239.997498 
L 101.401236 240.075004 
L 104.321608 239.816649 
L 106.268523 239.40328 
L 108.215437 238.834898 
L 111.135809 237.723969 
L 114.056181 236.328849 
L 115.029638 235.812138 
L 116.003095 236.509698 
L 117.95001 239.015747 
L 119.896925 241.211769 
L 121.843839 242.968587 
L 123.790754 244.234529 
L 125.737668 245.112938 
L 127.684583 245.732991 
L 129.631497 246.094689 
L 131.578412 246.249702 
L 133.525327 246.043018 
L 134.498784 245.758827 
L 135.472241 245.319622 
L 136.445698 244.673733 
L 137.419156 243.795324 
L 138.392613 242.65856 
L 139.36607 241.340947 
L 141.312985 238.085667 
L 144.233357 232.711871 
L 149.100643 234.572031 
L 152.994472 235.605453 
L 155.914844 236.122164 
L 158.835216 236.354684 
L 161.755588 236.432191 
L 175.38399 235.967151 
L 178.304362 235.502111 
L 181.224734 234.804551 
L 184.145106 233.848636 
L 187.065477 232.6602 
L 189.985849 231.26508 
L 192.906221 229.63744 
L 196.80005 227.131391 
L 201.667337 223.514413 
L 205.561166 220.310804 
L 209.454995 216.874676 
L 214.322281 212.379289 
L 217.242653 209.666556 
L 221.136482 212.844329 
L 224.056854 214.98868 
L 227.950683 217.468893 
L 228.924141 216.3838 
L 235.738342 207.31552 
L 238.658714 203.750213 
L 240.605628 201.709204 
L 241.579085 200.882467 
L 242.552543 200.314084 
L 243.526 200.1074 
L 243.526 200.1074 
" style="fill:none;stroke:#ff0000;stroke-linecap:square;stroke-width:1.2;"/>
   </g>
   <g id="line2d_25">
    <path clip-path="url(#p104ea5dbbb)" d="M 49.808 193.36432 
L 51.754915 193.493498 
L 53.701829 193.855196 
L 55.648744 194.475249 
L 57.595658 195.353658 
L 59.542573 196.490422 
L 61.489487 197.885542 
L 63.436402 199.539018 
L 65.383317 201.450849 
L 67.330231 203.621036 
L 70.250603 207.341356 
L 73.170975 211.526716 
L 74.144432 211.475044 
L 79.985176 207.418862 
L 81.93209 206.307933 
L 83.879005 205.429524 
L 85.82592 204.861142 
L 86.799377 204.706129 
L 87.772834 204.680293 
L 89.719749 204.99032 
L 90.693206 205.300347 
L 92.640121 206.333769 
L 94.587035 207.78056 
L 96.53395 209.64072 
L 98.480864 211.785071 
L 101.401236 215.45372 
L 105.295065 220.853351 
L 115.029638 235.140413 
L 116.003095 235.269591 
L 120.870382 232.453516 
L 123.790754 230.825876 
L 125.737668 229.895796 
L 127.684583 229.146564 
L 129.631497 228.681524 
L 131.578412 228.526511 
L 133.525327 228.681524 
L 135.472241 229.120729 
L 138.392613 230.154151 
L 143.259899 232.272667 
L 144.233357 232.19516 
L 147.153729 225.607093 
L 152.994472 211.707564 
L 156.888302 202.561778 
L 157.861759 202.277587 
L 160.782131 202.277587 
L 165.649417 202.510107 
L 170.516704 202.690956 
L 174.410533 202.587613 
L 177.330905 202.329258 
L 180.251276 201.864218 
L 184.145106 200.959973 
L 187.065477 200.029893 
L 190.959307 198.47976 
L 193.879678 197.110476 
L 197.773508 194.940289 
L 199.720422 193.751853 
L 200.693879 194.346071 
L 205.561166 198.867293 
L 214.322281 207.108836 
L 217.242653 209.614884 
L 224.056854 203.388516 
L 226.977226 200.908302 
L 229.897598 198.686444 
L 232.81797 196.748778 
L 235.738342 195.198644 
L 237.685256 194.423578 
L 239.632171 193.82936 
L 241.579085 193.493498 
L 243.526 193.36432 
L 243.526 193.36432 
" style="fill:none;stroke:#ff0000;stroke-linecap:square;stroke-width:1.2;"/>
   </g>
   <g id="line2d_26">
    <path clip-path="url(#p104ea5dbbb)" d="M 49.808 193.36432 
L 50.781457 193.183471 
L 51.754915 192.66676 
L 53.701829 191.116627 
L 60.51603 185.200284 
L 63.436402 183.107604 
L 65.383317 181.919169 
L 68.303688 180.472378 
L 70.250603 179.723147 
L 72.197518 179.128929 
L 74.144432 178.71556 
L 76.091347 178.457204 
L 78.038261 178.353862 
L 80.958633 178.508876 
L 83.879005 178.999751 
L 85.82592 179.516462 
L 88.746291 180.549884 
L 91.666663 181.867498 
L 94.587035 183.495138 
L 97.507407 185.355298 
L 101.401236 188.223044 
L 105.295065 191.400818 
L 112.109266 197.472173 
L 116.976553 201.864218 
L 119.896925 204.344431 
L 122.817296 206.566289 
L 124.764211 207.832231 
L 126.711126 208.865653 
L 128.65804 209.563213 
L 130.604955 209.950747 
L 132.551869 209.950747 
L 134.498784 209.589049 
L 136.445698 208.968996 
L 138.392613 208.168093 
L 141.312985 206.824644 
L 146.180271 204.680293 
L 149.100643 203.672707 
L 152.021015 202.923476 
L 154.941387 202.484271 
L 156.888302 202.329258 
L 158.835216 198.221404 
L 161.755588 192.150049 
L 163.702503 188.4814 
L 165.649417 185.200284 
L 167.596332 182.461716 
L 168.569789 181.350787 
L 169.543246 180.472378 
L 170.516704 179.903996 
L 171.490161 179.723147 
L 174.410533 179.87816 
L 176.357447 180.136516 
L 178.304362 180.549884 
L 181.224734 181.428293 
L 183.171648 182.151689 
L 186.09202 183.546809 
L 189.012392 185.200284 
L 191.932764 187.137951 
L 195.826593 190.134876 
L 199.720422 193.467662 
L 200.693879 193.1318 
L 205.561166 189.902356 
L 210.428452 186.647076 
L 213.348824 184.864422 
L 216.269196 183.417631 
L 218.216111 182.6684 
L 220.163025 182.151689 
L 222.10994 181.919169 
L 224.056854 181.945004 
L 226.003769 182.255031 
L 227.950683 182.849249 
L 229.897598 183.727658 
L 231.844513 184.890258 
L 233.791427 186.233707 
L 236.711799 188.636413 
L 240.605628 191.995036 
L 241.579085 192.692596 
L 242.552543 193.183471 
L 243.526 193.36432 
L 243.526 193.36432 
" style="fill:none;stroke:#ff0000;stroke-linecap:square;stroke-width:1.2;"/>
   </g>
   <g id="line2d_27">
    <path clip-path="url(#p104ea5dbbb)" d="M 49.808 154.507644 
L 52.728372 154.585151 
L 55.648744 154.791836 
L 59.542573 155.386053 
L 62.462945 156.083613 
L 65.383317 157.117036 
L 68.303688 158.460484 
L 70.250603 159.597249 
L 73.170975 161.586587 
L 76.091347 163.937622 
L 85.82592 172.334178 
L 87.772834 173.574284 
L 89.719749 174.504364 
L 91.666663 175.072747 
L 93.613578 175.305267 
L 95.560492 175.253596 
L 97.507407 174.943569 
L 99.454322 174.426858 
L 102.374693 173.315929 
L 105.295065 171.843302 
L 107.24198 170.706538 
L 110.162352 168.691364 
L 113.082724 166.443671 
L 118.923467 161.50908 
L 121.843839 159.132209 
L 124.764211 157.142871 
L 126.711126 156.135284 
L 128.65804 155.411889 
L 130.604955 155.076027 
L 132.551869 155.076027 
L 134.498784 155.411889 
L 136.445698 156.006107 
L 139.36607 157.272049 
L 149.100643 161.870778 
L 152.994472 163.317569 
L 160.782131 166.081973 
L 163.702503 167.373751 
L 167.596332 169.440596 
L 169.543246 170.396511 
L 170.516704 170.680702 
L 172.463618 170.835716 
L 174.410533 171.094071 
L 176.357447 171.636618 
L 178.304362 172.360013 
L 181.224734 173.806804 
L 188.038935 177.55296 
L 189.985849 178.405533 
L 191.932764 179.051422 
L 193.879678 179.387284 
L 195.826593 179.438956 
L 197.773508 179.128929 
L 199.720422 178.48304 
L 201.667337 177.527124 
L 203.614251 176.261182 
L 205.561166 174.736884 
L 208.481538 172.153329 
L 218.216111 162.981707 
L 220.163025 161.431573 
L 223.083397 159.442236 
L 225.030312 158.331307 
L 227.950683 157.013693 
L 230.871055 156.031942 
L 233.791427 155.360218 
L 236.711799 154.895178 
L 240.605628 154.585151 
L 243.526 154.507644 
L 243.526 154.507644 
" style="fill:none;stroke:#ff0000;stroke-linecap:square;stroke-width:1.2;"/>
   </g>
   <g id="line2d_28">
    <path clip-path="url(#p104ea5dbbb)" d="M 49.808 83.175676 
L 51.754915 83.279018 
L 53.701829 83.666551 
L 55.648744 84.234933 
L 58.569116 85.397533 
L 66.356774 88.96284 
L 68.303688 90.745493 
L 71.22406 93.484062 
L 73.170975 95.163373 
L 76.091347 97.462738 
L 79.985176 100.149636 
L 82.905548 101.854782 
L 84.852462 102.836533 
L 86.799377 103.637436 
L 88.746291 104.205818 
L 90.693206 104.490009 
L 92.640121 104.490009 
L 94.587035 104.154147 
L 96.53395 103.508258 
L 98.480864 102.578178 
L 101.401236 100.769689 
L 104.321608 98.9612 
L 105.295065 98.470324 
L 106.268523 98.108627 
L 107.24198 97.876107 
L 108.215437 97.7986 
L 109.188894 97.876107 
L 110.162352 98.082791 
L 112.109266 98.909529 
L 114.056181 100.097964 
L 116.976553 102.397329 
L 120.870382 105.833458 
L 123.790754 108.262 
L 125.737668 109.605449 
L 127.684583 110.638871 
L 129.631497 111.28476 
L 131.578412 111.491444 
L 133.525327 111.28476 
L 135.472241 110.638871 
L 137.419156 109.682956 
L 139.36607 108.468684 
L 142.286442 106.350169 
L 149.100643 101.208893 
L 151.047558 99.917116 
L 153.96793 98.315311 
L 155.914844 97.514409 
L 157.861759 96.946027 
L 159.808673 96.584329 
L 162.729045 96.455151 
L 166.622874 96.661836 
L 170.516704 96.894356 
L 175.38399 96.997698 
L 180.251276 97.33356 
L 185.118563 97.746929 
L 189.985849 97.901942 
L 193.879678 97.695258 
L 196.80005 97.307724 
L 200.693879 96.584329 
L 203.614251 97.591916 
L 205.561166 98.082791 
L 208.481538 98.444489 
L 210.428452 98.444489 
L 212.375367 98.186133 
L 214.322281 97.695258 
L 216.269196 96.946027 
L 218.216111 95.93844 
L 220.163025 94.646662 
L 222.10994 93.1482 
L 225.030312 90.538809 
L 226.977226 88.626978 
L 227.950683 87.903582 
L 230.871055 86.87016 
L 237.685256 84.183262 
L 240.605628 83.434031 
L 242.552543 83.201511 
L 243.526 83.175676 
L 243.526 83.175676 
" style="fill:none;stroke:#ff0000;stroke-linecap:square;stroke-width:1.2;"/>
   </g>
   <g id="line2d_29">
    <path clip-path="url(#p104ea5dbbb)" d="M 49.808 83.175676 
L 51.754915 83.020662 
L 53.701829 82.633129 
L 55.648744 81.961404 
L 57.595658 81.031324 
L 58.569116 81.108831 
L 61.489487 83.8474 
L 66.356774 88.807827 
L 67.330231 89.350373 
L 70.250603 90.254618 
L 73.170975 90.771329 
L 75.117889 90.874671 
L 77.064804 90.797164 
L 79.985176 90.35796 
L 81.93209 90.848836 
L 83.879005 91.133027 
L 85.82592 91.184698 
L 87.772834 91.081356 
L 90.693206 90.693822 
L 98.480864 89.143689 
L 102.374693 88.26528 
L 104.321608 87.619391 
L 106.268523 86.63764 
L 107.24198 85.965916 
L 109.188894 84.209098 
L 111.135809 82.038911 
L 113.082724 79.584533 
L 116.976553 74.417422 
L 117.95001 73.978218 
L 121.843839 74.391587 
L 129.631497 75.373338 
L 132.551869 75.399173 
L 134.498784 75.24416 
L 136.445698 74.908298 
L 138.392613 74.339916 
L 140.339528 73.539013 
L 142.286442 72.505591 
L 144.233357 71.213813 
L 145.206814 70.852116 
L 152.021015 76.742622 
L 154.941387 78.96448 
L 157.861759 80.772969 
L 159.808673 81.728884 
L 161.755588 82.426444 
L 163.702503 82.91732 
L 166.622874 83.356524 
L 168.569789 83.511538 
L 173.437075 83.692387 
L 175.38399 84.028249 
L 177.330905 84.596631 
L 179.277819 85.320027 
L 183.171648 87.180187 
L 190.959307 91.623902 
L 194.853136 93.819924 
L 197.773508 95.292551 
L 199.720422 96.17096 
L 200.693879 96.377644 
L 203.614251 95.395893 
L 207.50808 93.742418 
L 211.40191 91.727244 
L 217.242653 88.239444 
L 218.216111 87.619391 
L 220.163025 88.213609 
L 222.10994 88.523636 
L 224.056854 88.575307 
L 226.003769 88.342787 
L 226.977226 88.136102 
L 227.950683 87.645227 
L 232.81797 82.762307 
L 234.764884 81.005489 
L 235.738342 81.134667 
L 237.685256 82.013076 
L 239.632171 82.658964 
L 241.579085 83.046498 
L 243.526 83.175676 
L 243.526 83.175676 
" style="fill:none;stroke:#ff0000;stroke-linecap:square;stroke-width:1.2;"/>
   </g>
   <g id="line2d_30">
    <path clip-path="url(#p104ea5dbbb)" d="M 49.808 76.897636 
L 51.754915 77.130156 
L 53.701829 77.80188 
L 55.648744 78.886973 
L 57.595658 80.307929 
L 58.569116 80.488778 
L 59.542573 79.868724 
L 60.51603 79.42952 
L 63.436402 80.927982 
L 66.356774 82.633129 
L 76.091347 88.704484 
L 78.038261 89.634564 
L 79.985176 90.306289 
L 82.905548 89.42788 
L 85.82592 88.187773 
L 88.746291 86.689311 
L 92.640121 84.338276 
L 103.348151 77.56936 
L 106.268523 76.122569 
L 108.215437 75.347502 
L 110.162352 74.727449 
L 113.082724 74.133231 
L 116.003095 73.926547 
L 116.976553 73.952382 
L 117.95001 73.15148 
L 120.870382 69.637844 
L 122.817296 67.622671 
L 124.764211 65.969196 
L 126.711126 64.703253 
L 128.65804 63.85068 
L 130.604955 63.437311 
L 132.551869 63.437311 
L 134.498784 63.85068 
L 136.445698 64.599911 
L 138.392613 65.659169 
L 141.312985 67.648507 
L 144.233357 70.025378 
L 145.206814 70.464582 
L 147.153729 68.785271 
L 149.100643 66.87344 
L 152.021015 63.61816 
L 154.941387 60.001182 
L 158.835216 55.066591 
L 160.782131 53.051418 
L 161.755588 52.508871 
L 162.729045 52.431364 
L 164.67596 52.999747 
L 167.596332 54.007333 
L 169.543246 54.420702 
L 171.490161 54.54988 
L 174.410533 54.730729 
L 176.357447 55.040756 
L 178.304362 55.505796 
L 181.224734 56.539218 
L 184.145106 57.960173 
L 187.065477 59.768662 
L 189.985849 61.964684 
L 192.906221 64.496569 
L 196.80005 68.320231 
L 201.667337 73.513178 
L 206.534623 78.680289 
L 209.454995 81.5222 
L 211.40191 83.253182 
L 213.348824 84.77748 
L 215.295739 86.095093 
L 217.242653 87.154351 
L 218.216111 87.56772 
L 220.163025 86.40512 
L 226.003769 82.813978 
L 228.924141 81.186338 
L 231.844513 79.739547 
L 232.81797 79.455356 
L 234.764884 80.617956 
L 235.738342 80.204587 
L 237.685256 78.835302 
L 239.632171 77.776044 
L 241.579085 77.130156 
L 243.526 76.897636 
L 243.526 76.897636 
" style="fill:none;stroke:#ff0000;stroke-linecap:square;stroke-width:1.2;"/>
   </g>
   <g id="line2d_31">
    <path clip-path="url(#p104ea5dbbb)" d="M 49.808 76.897636 
L 51.754915 77.000978 
L 53.701829 77.259333 
L 55.648744 77.672702 
L 58.569116 78.628618 
L 59.542573 79.016151 
L 60.51603 79.222836 
L 62.462945 77.698538 
L 64.409859 76.019227 
L 67.330231 73.15148 
L 70.250603 69.947871 
L 74.144432 65.374978 
L 84.852462 52.741391 
L 87.772834 49.718631 
L 90.693206 47.005898 
L 93.613578 44.654862 
L 96.53395 42.665524 
L 99.454322 41.037884 
L 102.374693 39.6686 
L 107.24198 37.705098 
L 115.029638 34.501489 
L 122.817296 31.091196 
L 125.737668 30.083609 
L 128.65804 29.411884 
L 130.604955 29.179364 
L 132.551869 29.2052 
L 134.498784 29.43772 
L 136.445698 29.954431 
L 138.392613 30.729498 
L 140.339528 31.76292 
L 142.286442 33.003027 
L 145.206814 35.302391 
L 148.127186 37.937618 
L 157.861759 47.160911 
L 159.808673 48.50436 
L 160.782131 48.917729 
L 161.755588 48.9694 
L 162.729045 48.530196 
L 164.67596 46.954227 
L 166.622874 45.378258 
L 168.569789 44.189822 
L 169.543246 43.802289 
L 170.516704 43.569769 
L 172.463618 43.492262 
L 176.357447 43.698947 
L 180.251276 44.189822 
L 183.171648 44.732369 
L 187.065477 45.765791 
L 190.959307 47.10924 
L 193.879678 48.375182 
L 196.80005 49.847809 
L 198.746965 50.932902 
L 202.640794 53.438951 
L 205.561166 55.557467 
L 210.428452 59.561978 
L 214.322281 63.075613 
L 220.163025 68.630258 
L 226.003769 74.08156 
L 228.924141 76.587609 
L 231.844513 78.783631 
L 232.81797 79.300342 
L 235.738342 78.215249 
L 237.685256 77.646867 
L 239.632171 77.233498 
L 242.552543 76.923471 
L 243.526 76.897636 
L 243.526 76.897636 
" style="fill:none;stroke:#ff0000;stroke-linecap:square;stroke-width:1.2;"/>
   </g>
   <g id="line2d_32">
    <path clip-path="url(#p104ea5dbbb)" d="M 49.808 10.681107 
L 50.781457 10.655271 
L 52.728372 10.267738 
L 54.675286 9.570178 
L 56.622201 8.588427 
L 58.569116 7.374156 
L 61.489487 5.229804 
L 64.409859 2.801262 
L 67.330231 0.114364 
L 68.465045 -1 
M 224.386913 -1 
L 227.950683 2.23288 
L 231.844513 5.410653 
L 234.764884 7.477498 
L 236.711799 8.665933 
L 238.658714 9.621849 
L 240.605628 10.293573 
L 242.552543 10.655271 
L 243.526 10.681107 
L 243.526 10.681107 
" style="fill:none;stroke:#ff0000;stroke-linecap:square;stroke-width:1.2;"/>
   </g>
   <g id="line2d_33">
    <path clip-path="url(#p104ea5dbbb)" d="M 49.808 3.757178 
L 51.754915 3.679671 
L 53.701829 3.39548 
L 56.622201 2.594578 
L 58.569116 1.845347 
L 60.51603 0.915267 
L 63.436402 -0.815716 
L 63.703465 -1 
M 229.386222 -1 
L 231.844513 0.501898 
L 233.791427 1.483649 
L 235.738342 2.310387 
L 237.685256 2.93044 
L 239.632171 3.39548 
L 241.579085 3.679671 
L 243.526 3.757178 
L 243.526 3.757178 
" style="fill:none;stroke:#ff0000;stroke-linecap:square;stroke-width:1.2;"/>
   </g>
   <g id="line2d_34">
    <path clip-path="url(#p104ea5dbbb)" d="M 0 0 
" style="fill:none;stroke:#ff0000;stroke-linecap:square;stroke-width:1.2;"/>
   </g>
   <g id="line2d_35">
    <path clip-path="url(#p104ea5dbbb)" d="M 0 0 
" style="fill:none;stroke:#ff0000;stroke-linecap:square;stroke-width:1.2;"/>
   </g>
   <g id="line2d_36">
    <path clip-path="url(#p104ea5dbbb)" d="M 0 0 
" style="fill:none;stroke:#ff0000;stroke-linecap:square;stroke-width:1.2;"/>
   </g>
   <g id="line2d_37">
    <path clip-path="url(#p104ea5dbbb)" d="M 0 0 
" style="fill:none;stroke:#ff0000;stroke-linecap:square;stroke-width:1.2;"/>
   </g>
   <g id="line2d_38">
    <path clip-path="url(#p104ea5dbbb)" d="M 0 0 
" style="fill:none;stroke:#ff0000;stroke-linecap:square;stroke-width:1.2;"/>
   </g>
   <g id="line2d_39">
    <path clip-path="url(#p104ea5dbbb)" d="M 0 0 
" style="fill:none;stroke:#ff0000;stroke-linecap:square;stroke-width:1.2;"/>
   </g>
   <g id="line2d_40">
    <path clip-path="url(#p104ea5dbbb)" d="M 0 0 
" style="fill:none;stroke:#ff0000;stroke-linecap:square;stroke-width:1.2;"/>
   </g>
   <g id="line2d_41">
    <path clip-path="url(#p104ea5dbbb)" d="M 49.808 130.222222 
L 243.526 130.222222 
" style="fill:none;stroke:#808080;stroke-dasharray:4.44,1.92;stroke-dashoffset:0;stroke-width:1.2;"/>
   </g>
   <g id="line2d_42">
    <path clip-path="url(#p104ea5dbbb)" d="M 130.604955 259.4 
L 130.604955 26.88 
" style="fill:none;stroke:#808080;stroke-dasharray:4.44,1.92;stroke-dashoffset:0;stroke-width:1.2;"/>
   </g>
   <g id="line2d_43">
    <path clip-path="url(#p104ea5dbbb)" d="M 171.490161 259.4 
L 171.490161 26.88 
" style="fill:none;stroke:#808080;stroke-dasharray:4.44,1.92;stroke-dashoffset:0;stroke-width:1.2;"/>
   </g>
   <g id="patch_3">
    <path d="M 49.808 259.4 
L 49.808 26.88 
" style="fill:none;stroke:#000000;stroke-linecap:square;stroke-linejoin:miter;stroke-width:0.8;"/>
   </g>
   <g id="patch_4">
    <path d="M 243.526 259.4 
L 243.526 26.88 
" style="fill:none;stroke:#000000;stroke-linecap:square;stroke-linejoin:miter;stroke-width:0.8;"/>
   </g>
   <g id="patch_5">
    <path d="M 49.808 259.4 
L 243.526 259.4 
" style="fill:none;stroke:#000000;stroke-linecap:square;stroke-linejoin:miter;stroke-width:0.8;"/>
   </g>
   <g id="patch_6">
    <path d="M 49.808 26.88 
L 243.526 26.88 
" style="fill:none;stroke:#000000;stroke-linecap:square;stroke-linejoin:miter;stroke-width:0.8;"/>
   </g>
   <g id="text_16">
    <!-- Band structure of MoS${_2}$ -->
    <g transform="translate(76.827 20.88)scale(0.12 -0.12)">
     <defs>
      <path d="M 19.671875 34.8125 
L 19.671875 8.109375 
L 35.5 8.109375 
Q 43.453125 8.109375 47.28125 11.40625 
Q 51.125 14.703125 51.125 21.484375 
Q 51.125 28.328125 47.28125 31.5625 
Q 43.453125 34.8125 35.5 34.8125 
z
M 19.671875 64.796875 
L 19.671875 42.828125 
L 34.28125 42.828125 
Q 41.5 42.828125 45.03125 45.53125 
Q 48.578125 48.25 48.578125 53.8125 
Q 48.578125 59.328125 45.03125 62.0625 
Q 41.5 64.796875 34.28125 64.796875 
z
M 9.8125 72.90625 
L 35.015625 72.90625 
Q 46.296875 72.90625 52.390625 68.21875 
Q 58.5 63.53125 58.5 54.890625 
Q 58.5 48.1875 55.375 44.234375 
Q 52.25 40.28125 46.1875 39.3125 
Q 53.46875 37.75 57.5 32.78125 
Q 61.53125 27.828125 61.53125 20.40625 
Q 61.53125 10.640625 54.890625 5.3125 
Q 48.25 0 35.984375 0 
L 9.8125 0 
z
" id="DejaVuSans-66"/>
      <path d="M 34.28125 27.484375 
Q 23.390625 27.484375 19.1875 25 
Q 14.984375 22.515625 14.984375 16.5 
Q 14.984375 11.71875 18.140625 8.90625 
Q 21.296875 6.109375 26.703125 6.109375 
Q 34.1875 6.109375 38.703125 11.40625 
Q 43.21875 16.703125 43.21875 25.484375 
L 43.21875 27.484375 
z
M 52.203125 31.203125 
L 52.203125 0 
L 43.21875 0 
L 43.21875 8.296875 
Q 40.140625 3.328125 35.546875 0.953125 
Q 30.953125 -1.421875 24.3125 -1.421875 
Q 15.921875 -1.421875 10.953125 3.296875 
Q 6 8.015625 6 15.921875 
Q 6 25.140625 12.171875 29.828125 
Q 18.359375 34.515625 30.609375 34.515625 
L 43.21875 34.515625 
L 43.21875 35.40625 
Q 43.21875 41.609375 39.140625 45 
Q 35.0625 48.390625 27.6875 48.390625 
Q 23 48.390625 18.546875 47.265625 
Q 14.109375 46.140625 10.015625 43.890625 
L 10.015625 52.203125 
Q 14.9375 54.109375 19.578125 55.046875 
Q 24.21875 56 28.609375 56 
Q 40.484375 56 46.34375 49.84375 
Q 52.203125 43.703125 52.203125 31.203125 
z
" id="DejaVuSans-97"/>
      <path d="M 54.890625 33.015625 
L 54.890625 0 
L 45.90625 0 
L 45.90625 32.71875 
Q 45.90625 40.484375 42.875 44.328125 
Q 39.84375 48.1875 33.796875 48.1875 
Q 26.515625 48.1875 22.3125 43.546875 
Q 18.109375 38.921875 18.109375 30.90625 
L 18.109375 0 
L 9.078125 0 
L 9.078125 54.6875 
L 18.109375 54.6875 
L 18.109375 46.1875 
Q 21.34375 51.125 25.703125 53.5625 
Q 30.078125 56 35.796875 56 
Q 45.21875 56 50.046875 50.171875 
Q 54.890625 44.34375 54.890625 33.015625 
z
" id="DejaVuSans-110"/>
      <path d="M 45.40625 46.390625 
L 45.40625 75.984375 
L 54.390625 75.984375 
L 54.390625 0 
L 45.40625 0 
L 45.40625 8.203125 
Q 42.578125 3.328125 38.25 0.953125 
Q 33.9375 -1.421875 27.875 -1.421875 
Q 17.96875 -1.421875 11.734375 6.484375 
Q 5.515625 14.40625 5.515625 27.296875 
Q 5.515625 40.1875 11.734375 48.09375 
Q 17.96875 56 27.875 56 
Q 33.9375 56 38.25 53.625 
Q 42.578125 51.265625 45.40625 46.390625 
z
M 14.796875 27.296875 
Q 14.796875 17.390625 18.875 11.75 
Q 22.953125 6.109375 30.078125 6.109375 
Q 37.203125 6.109375 41.296875 11.75 
Q 45.40625 17.390625 45.40625 27.296875 
Q 45.40625 37.203125 41.296875 42.84375 
Q 37.203125 48.484375 30.078125 48.484375 
Q 22.953125 48.484375 18.875 42.84375 
Q 14.796875 37.203125 14.796875 27.296875 
z
" id="DejaVuSans-100"/>
      <path d="M 44.28125 53.078125 
L 44.28125 44.578125 
Q 40.484375 46.53125 36.375 47.5 
Q 32.28125 48.484375 27.875 48.484375 
Q 21.1875 48.484375 17.84375 46.4375 
Q 14.5 44.390625 14.5 40.28125 
Q 14.5 37.15625 16.890625 35.375 
Q 19.28125 33.59375 26.515625 31.984375 
L 29.59375 31.296875 
Q 39.15625 29.25 43.1875 25.515625 
Q 47.21875 21.78125 47.21875 15.09375 
Q 47.21875 7.46875 41.1875 3.015625 
Q 35.15625 -1.421875 24.609375 -1.421875 
Q 20.21875 -1.421875 15.453125 -0.5625 
Q 10.6875 0.296875 5.421875 2 
L 5.421875 11.28125 
Q 10.40625 8.6875 15.234375 7.390625 
Q 20.0625 6.109375 24.8125 6.109375 
Q 31.15625 6.109375 34.5625 8.28125 
Q 37.984375 10.453125 37.984375 14.40625 
Q 37.984375 18.0625 35.515625 20.015625 
Q 33.0625 21.96875 24.703125 23.78125 
L 21.578125 24.515625 
Q 13.234375 26.265625 9.515625 29.90625 
Q 5.8125 33.546875 5.8125 39.890625 
Q 5.8125 47.609375 11.28125 51.796875 
Q 16.75 56 26.8125 56 
Q 31.78125 56 36.171875 55.265625 
Q 40.578125 54.546875 44.28125 53.078125 
z
" id="DejaVuSans-115"/>
      <path d="M 18.3125 70.21875 
L 18.3125 54.6875 
L 36.8125 54.6875 
L 36.8125 47.703125 
L 18.3125 47.703125 
L 18.3125 18.015625 
Q 18.3125 11.328125 20.140625 9.421875 
Q 21.96875 7.515625 27.59375 7.515625 
L 36.8125 7.515625 
L 36.8125 0 
L 27.59375 0 
Q 17.1875 0 13.234375 3.875 
Q 9.28125 7.765625 9.28125 18.015625 
L 9.28125 47.703125 
L 2.6875 47.703125 
L 2.6875 54.6875 
L 9.28125 54.6875 
L 9.28125 70.21875 
z
" id="DejaVuSans-116"/>
      <path d="M 41.109375 46.296875 
Q 39.59375 47.171875 37.8125 47.578125 
Q 36.03125 48 33.890625 48 
Q 26.265625 48 22.1875 43.046875 
Q 18.109375 38.09375 18.109375 28.8125 
L 18.109375 0 
L 9.078125 0 
L 9.078125 54.6875 
L 18.109375 54.6875 
L 18.109375 46.1875 
Q 20.953125 51.171875 25.484375 53.578125 
Q 30.03125 56 36.53125 56 
Q 37.453125 56 38.578125 55.875 
Q 39.703125 55.765625 41.0625 55.515625 
z
" id="DejaVuSans-114"/>
      <path d="M 8.5 21.578125 
L 8.5 54.6875 
L 17.484375 54.6875 
L 17.484375 21.921875 
Q 17.484375 14.15625 20.5 10.265625 
Q 23.53125 6.390625 29.59375 6.390625 
Q 36.859375 6.390625 41.078125 11.03125 
Q 45.3125 15.671875 45.3125 23.6875 
L 45.3125 54.6875 
L 54.296875 54.6875 
L 54.296875 0 
L 45.3125 0 
L 45.3125 8.40625 
Q 42.046875 3.421875 37.71875 1 
Q 33.40625 -1.421875 27.6875 -1.421875 
Q 18.265625 -1.421875 13.375 4.4375 
Q 8.5 10.296875 8.5 21.578125 
z
M 31.109375 56 
z
" id="DejaVuSans-117"/>
      <path d="M 48.78125 52.59375 
L 48.78125 44.1875 
Q 44.96875 46.296875 41.140625 47.34375 
Q 37.3125 48.390625 33.40625 48.390625 
Q 24.65625 48.390625 19.8125 42.84375 
Q 14.984375 37.3125 14.984375 27.296875 
Q 14.984375 17.28125 19.8125 11.734375 
Q 24.65625 6.203125 33.40625 6.203125 
Q 37.3125 6.203125 41.140625 7.25 
Q 44.96875 8.296875 48.78125 10.40625 
L 48.78125 2.09375 
Q 45.015625 0.34375 40.984375 -0.53125 
Q 36.96875 -1.421875 32.421875 -1.421875 
Q 20.0625 -1.421875 12.78125 6.34375 
Q 5.515625 14.109375 5.515625 27.296875 
Q 5.515625 40.671875 12.859375 48.328125 
Q 20.21875 56 33.015625 56 
Q 37.15625 56 41.109375 55.140625 
Q 45.0625 54.296875 48.78125 52.59375 
z
" id="DejaVuSans-99"/>
      <path d="M 30.609375 48.390625 
Q 23.390625 48.390625 19.1875 42.75 
Q 14.984375 37.109375 14.984375 27.296875 
Q 14.984375 17.484375 19.15625 11.84375 
Q 23.34375 6.203125 30.609375 6.203125 
Q 37.796875 6.203125 41.984375 11.859375 
Q 46.1875 17.53125 46.1875 27.296875 
Q 46.1875 37.015625 41.984375 42.703125 
Q 37.796875 48.390625 30.609375 48.390625 
z
M 30.609375 56 
Q 42.328125 56 49.015625 48.375 
Q 55.71875 40.765625 55.71875 27.296875 
Q 55.71875 13.875 49.015625 6.21875 
Q 42.328125 -1.421875 30.609375 -1.421875 
Q 18.84375 -1.421875 12.171875 6.21875 
Q 5.515625 13.875 5.515625 27.296875 
Q 5.515625 40.765625 12.171875 48.375 
Q 18.84375 56 30.609375 56 
z
" id="DejaVuSans-111"/>
      <path d="M 37.109375 75.984375 
L 37.109375 68.5 
L 28.515625 68.5 
Q 23.6875 68.5 21.796875 66.546875 
Q 19.921875 64.59375 19.921875 59.515625 
L 19.921875 54.6875 
L 34.71875 54.6875 
L 34.71875 47.703125 
L 19.921875 47.703125 
L 19.921875 0 
L 10.890625 0 
L 10.890625 47.703125 
L 2.296875 47.703125 
L 2.296875 54.6875 
L 10.890625 54.6875 
L 10.890625 58.5 
Q 10.890625 67.625 15.140625 71.796875 
Q 19.390625 75.984375 28.609375 75.984375 
z
" id="DejaVuSans-102"/>
      <path d="M 53.515625 70.515625 
L 53.515625 60.890625 
Q 47.90625 63.578125 42.921875 64.890625 
Q 37.9375 66.21875 33.296875 66.21875 
Q 25.25 66.21875 20.875 63.09375 
Q 16.5 59.96875 16.5 54.203125 
Q 16.5 49.359375 19.40625 46.890625 
Q 22.3125 44.4375 30.421875 42.921875 
L 36.375 41.703125 
Q 47.40625 39.59375 52.65625 34.296875 
Q 57.90625 29 57.90625 20.125 
Q 57.90625 9.515625 50.796875 4.046875 
Q 43.703125 -1.421875 29.984375 -1.421875 
Q 24.8125 -1.421875 18.96875 -0.25 
Q 13.140625 0.921875 6.890625 3.21875 
L 6.890625 13.375 
Q 12.890625 10.015625 18.65625 8.296875 
Q 24.421875 6.59375 29.984375 6.59375 
Q 38.421875 6.59375 43.015625 9.90625 
Q 47.609375 13.234375 47.609375 19.390625 
Q 47.609375 24.75 44.3125 27.78125 
Q 41.015625 30.8125 33.5 32.328125 
L 27.484375 33.5 
Q 16.453125 35.6875 11.515625 40.375 
Q 6.59375 45.0625 6.59375 53.421875 
Q 6.59375 63.09375 13.40625 68.65625 
Q 20.21875 74.21875 32.171875 74.21875 
Q 37.3125 74.21875 42.625 73.28125 
Q 47.953125 72.359375 53.515625 70.515625 
z
" id="DejaVuSans-83"/>
     </defs>
     <use transform="translate(0 0.015625)" xlink:href="#DejaVuSans-66"/>
     <use transform="translate(68.603516 0.015625)" xlink:href="#DejaVuSans-97"/>
     <use transform="translate(129.882812 0.015625)" xlink:href="#DejaVuSans-110"/>
     <use transform="translate(193.261719 0.015625)" xlink:href="#DejaVuSans-100"/>
     <use transform="translate(256.738281 0.015625)" xlink:href="#DejaVuSans-32"/>
     <use transform="translate(288.525391 0.015625)" xlink:href="#DejaVuSans-115"/>
     <use transform="translate(340.625 0.015625)" xlink:href="#DejaVuSans-116"/>
     <use transform="translate(379.833984 0.015625)" xlink:href="#DejaVuSans-114"/>
     <use transform="translate(420.947266 0.015625)" xlink:href="#DejaVuSans-117"/>
     <use transform="translate(484.326172 0.015625)" xlink:href="#DejaVuSans-99"/>
     <use transform="translate(539.306641 0.015625)" xlink:href="#DejaVuSans-116"/>
     <use transform="translate(578.515625 0.015625)" xlink:href="#DejaVuSans-117"/>
     <use transform="translate(641.894531 0.015625)" xlink:href="#DejaVuSans-114"/>
     <use transform="translate(683.007812 0.015625)" xlink:href="#DejaVuSans-101"/>
     <use transform="translate(744.53125 0.015625)" xlink:href="#DejaVuSans-32"/>
     <use transform="translate(776.318359 0.015625)" xlink:href="#DejaVuSans-111"/>
     <use transform="translate(837.5 0.015625)" xlink:href="#DejaVuSans-102"/>
     <use transform="translate(872.705078 0.015625)" xlink:href="#DejaVuSans-32"/>
     <use transform="translate(904.492188 0.015625)" xlink:href="#DejaVuSans-77"/>
     <use transform="translate(990.771484 0.015625)" xlink:href="#DejaVuSans-111"/>
     <use transform="translate(1051.953125 0.015625)" xlink:href="#DejaVuSans-83"/>
     <use transform="translate(1116.386719 -16.390625)scale(0.7)" xlink:href="#DejaVuSans-50"/>
    </g>
   </g>
  </g>
  <g id="axes_2">
   <g id="patch_7">
    <path d="M 261.156 259.4 
L 349.2 259.4 
L 349.2 26.88 
L 261.156 26.88 
z
" style="fill:#ffffff;"/>
   </g>
   <g id="matplotlib.axis_3">
    <g id="text_17">
     <!-- DOS (a.u.) -->
     <g transform="translate(274.143937 272.518125)scale(0.12 -0.12)">
      <defs>
       <path d="M 19.671875 64.796875 
L 19.671875 8.109375 
L 31.59375 8.109375 
Q 46.6875 8.109375 53.6875 14.9375 
Q 60.6875 21.78125 60.6875 36.53125 
Q 60.6875 51.171875 53.6875 57.984375 
Q 46.6875 64.796875 31.59375 64.796875 
z
M 9.8125 72.90625 
L 30.078125 72.90625 
Q 51.265625 72.90625 61.171875 64.09375 
Q 71.09375 55.28125 71.09375 36.53125 
Q 71.09375 17.671875 61.125 8.828125 
Q 51.171875 0 30.078125 0 
L 9.8125 0 
z
" id="DejaVuSans-68"/>
       <path d="M 39.40625 66.21875 
Q 28.65625 66.21875 22.328125 58.203125 
Q 16.015625 50.203125 16.015625 36.375 
Q 16.015625 22.609375 22.328125 14.59375 
Q 28.65625 6.59375 39.40625 6.59375 
Q 50.140625 6.59375 56.421875 14.59375 
Q 62.703125 22.609375 62.703125 36.375 
Q 62.703125 50.203125 56.421875 58.203125 
Q 50.140625 66.21875 39.40625 66.21875 
z
M 39.40625 74.21875 
Q 54.734375 74.21875 63.90625 63.9375 
Q 73.09375 53.65625 73.09375 36.375 
Q 73.09375 19.140625 63.90625 8.859375 
Q 54.734375 -1.421875 39.40625 -1.421875 
Q 24.03125 -1.421875 14.8125 8.828125 
Q 5.609375 19.09375 5.609375 36.375 
Q 5.609375 53.65625 14.8125 63.9375 
Q 24.03125 74.21875 39.40625 74.21875 
z
" id="DejaVuSans-79"/>
       <path d="M 10.6875 12.40625 
L 21 12.40625 
L 21 0 
L 10.6875 0 
z
" id="DejaVuSans-46"/>
      </defs>
      <use xlink:href="#DejaVuSans-68"/>
      <use x="77.001953" xlink:href="#DejaVuSans-79"/>
      <use x="155.712891" xlink:href="#DejaVuSans-83"/>
      <use x="219.189453" xlink:href="#DejaVuSans-32"/>
      <use x="250.976562" xlink:href="#DejaVuSans-40"/>
      <use x="289.990234" xlink:href="#DejaVuSans-97"/>
      <use x="351.269531" xlink:href="#DejaVuSans-46"/>
      <use x="383.056641" xlink:href="#DejaVuSans-117"/>
      <use x="446.435547" xlink:href="#DejaVuSans-46"/>
      <use x="478.222656" xlink:href="#DejaVuSans-41"/>
     </g>
    </g>
   </g>
   <g id="matplotlib.axis_4"/>
   <g id="line2d_44">
    <path clip-path="url(#p7fdbf12b9c)" d="M 280.333488 289 
L 279.909372 288.465 
L 279.903502 288.206644 
L 280.22633 287.948289 
L 282.315908 287.689933 
L 286.166366 287.431578 
L 292.499664 287.173222 
L 289.283123 286.914867 
L 289.494429 286.656511 
L 294.982505 286.398156 
L 287.786375 286.1398 
L 284.939619 285.881444 
L 283.953526 285.623089 
L 284.382007 285.364733 
L 282.750258 285.106378 
L 288.361596 284.072956 
L 288.508336 283.8146 
L 297.060343 283.556244 
L 296.731646 283.297889 
L 287.205285 282.781178 
L 291.707268 282.522822 
L 285.66745 282.006111 
L 285.872886 281.747756 
L 283.888961 281.4894 
L 270.371272 281.231044 
L 269.473223 280.972689 
L 269.983878 280.197622 
L 270.829101 279.422556 
L 270.377142 279.1642 
L 271.42193 278.647489 
L 273.405855 278.389133 
L 273.206289 278.130778 
L 278.17197 277.872422 
L 274.931951 277.614067 
L 272.678025 277.097356 
L 270.670622 276.322289 
L 270.130618 276.063933 
L 270.177575 275.805578 
L 270.060183 275.547222 
L 268.211259 274.5138 
L 268.551696 274.255444 
L 268.463652 273.997089 
L 267.389515 273.222022 
L 267.60669 272.963667 
L 266.818403 272.446956 
L 266.41164 271.930244 
L 266.477966 271.671889 
L 266.141051 270.638467 
L 266.101138 269.8634 
L 265.460178 267.279844 
L 265.479547 266.504778 
L 265.027001 263.662867 
L 264.987675 262.8878 
L 264.819804 260.820956 
L 265.100371 260.5626 
L 265.133241 259.787533 
L 265.508895 259.529178 
L 275.589346 259.270822 
L 281.25351 259.012467 
L 279.35176 258.495756 
L 282.497866 257.462333 
L 283.360697 257.203978 
L 282.761998 256.945622 
L 284.452442 256.687267 
L 284.93375 256.428911 
L 286.24854 256.170556 
L 289.846605 255.653844 
L 291.425527 255.395489 
L 323.37376 255.137133 
L 304.549953 254.878778 
L 294.413154 254.620422 
L 294.049238 254.362067 
L 295.628161 254.103711 
L 291.23183 253.328644 
L 292.388142 253.070289 
L 298.269481 252.811933 
L 293.744019 252.295222 
L 293.28619 252.036867 
L 291.255309 251.778511 
L 285.479622 251.520156 
L 287.704201 251.2618 
L 287.780506 251.003444 
L 284.252876 250.745089 
L 279.181542 249.711667 
L 277.350226 249.194956 
L 276.058914 248.678244 
L 276.42283 248.419889 
L 292.135749 248.161533 
L 267.489298 247.903178 
L 266.931099 246.869756 
L 268.575174 244.544556 
L 268.680827 244.027844 
L 268.170172 243.252778 
L 267.589082 242.994422 
L 267.524516 242.477711 
L 267.677126 241.185933 
L 267.741691 240.410867 
L 268.909742 240.152511 
L 280.754594 239.894156 
L 282.527214 239.6358 
L 280.936552 239.377444 
L 280.918943 239.119089 
L 280.290896 238.860733 
L 285.027663 238.344022 
L 292.018357 237.827311 
L 287.733549 237.568956 
L 286.178105 237.3106 
L 288.813555 237.052244 
L 298.733179 236.535533 
L 337.636888 236.277178 
L 315.16219 236.018822 
L 297.518172 235.502111 
L 285.990278 234.9854 
L 285.21549 234.727044 
L 285.086359 234.468689 
L 282.656345 233.693622 
L 280.836769 233.176911 
L 278.230666 232.6602 
L 277.948926 232.401844 
L 276.874789 232.143489 
L 277.813925 231.885133 
L 282.063515 231.626778 
L 295.739683 231.368422 
L 281.582208 231.110067 
L 278.248275 230.851711 
L 277.121312 230.593356 
L 277.637837 230.335 
L 277.315009 230.076644 
L 271.104972 228.0098 
L 271.697802 227.751444 
L 271.163668 227.493089 
L 270.905406 226.976378 
L 270.177575 224.651178 
L 269.843008 224.392822 
L 270.418229 224.134467 
L 270.353663 223.617756 
L 269.895834 222.842689 
L 269.684529 222.584333 
L 269.238439 222.325978 
L 270.6941 221.809267 
L 271.791715 221.550911 
L 272.184978 221.292556 
L 270.242141 221.0342 
L 270.095401 220.517489 
L 271.251712 219.225711 
L 272.771938 218.450644 
L 273.423464 218.192289 
L 271.457148 217.933933 
L 267.107774 217.675578 
L 266.9851 217.417222 
L 268.551696 216.900511 
L 274.339122 215.350378 
L 275.166735 214.833667 
L 276.017827 214.575311 
L 277.473488 214.316956 
L 273.071288 213.800244 
L 265.710223 210.958333 
L 265.686744 210.441622 
L 266.204443 210.183267 
L 267.976475 209.666556 
L 275.583477 208.891489 
L 280.907204 208.116422 
L 284.963098 207.858067 
L 283.959396 207.599711 
L 277.520445 207.083 
L 278.336319 206.824644 
L 278.776539 205.532867 
L 278.688495 205.274511 
L 284.329181 205.016156 
L 282.556562 204.7578 
L 282.081124 204.241089 
L 280.81329 203.466022 
L 280.584376 203.207667 
L 281.165466 202.949311 
L 289.218558 202.690956 
L 301.679718 202.4326 
L 291.854008 202.174244 
L 290.292694 201.915889 
L 295.622291 201.657533 
L 293.162929 201.399178 
L 294.454241 200.882467 
L 295.064679 200.624111 
L 293.609018 200.365756 
L 289.740952 200.1074 
L 289.676386 199.849044 
L 281.177206 199.590689 
L 280.103069 199.332333 
L 278.236536 197.523844 
L 277.467618 196.748778 
L 276.962833 196.490422 
L 279.35176 196.232067 
L 284.957228 195.973711 
L 297.782304 195.715356 
L 271.046276 195.457 
L 269.95453 195.198644 
L 270.347794 194.940289 
L 271.028667 194.681933 
L 271.110842 194.423578 
L 270.876058 193.906867 
L 270.341924 193.390156 
L 270.013226 193.1318 
L 270.25388 192.873444 
L 272.032369 192.615089 
L 274.890864 192.356733 
L 276.340655 192.098378 
L 279.49263 191.840022 
L 284.687226 191.581667 
L 278.31871 191.064956 
L 276.023697 190.8066 
L 273.32955 189.773178 
L 272.989114 189.514822 
L 272.74259 188.998111 
L 272.689764 188.4814 
L 272.466719 188.223044 
L 272.619329 187.706333 
L 272.45498 186.931267 
L 272.466719 186.672911 
L 272.196718 186.414556 
L 272.783678 185.897844 
L 273.558465 184.864422 
L 273.763901 184.606067 
L 274.50347 184.089356 
L 274.726515 183.831 
L 274.820429 183.314289 
L 273.92238 183.055933 
L 276.458047 182.797578 
L 275.818261 182.539222 
L 281.365033 182.022511 
L 276.035436 180.730733 
L 274.855646 180.214022 
L 275.284127 179.955667 
L 274.843907 179.697311 
L 275.507172 179.438956 
L 275.160866 179.1806 
L 275.137387 178.922244 
L 274.233469 178.663889 
L 270.447577 178.147178 
L 270.676491 177.888822 
L 271.956064 177.630467 
L 271.545192 177.372111 
L 272.038238 177.113756 
L 276.505004 176.080333 
L 282.081124 175.563622 
L 298.709701 175.305267 
L 295.950989 175.046911 
L 281.570469 174.788556 
L 279.627631 174.013489 
L 278.588712 173.496778 
L 278.530016 173.238422 
L 278.61806 172.980067 
L 277.784577 172.721711 
L 277.643706 172.463356 
L 276.651744 172.205 
L 276.962833 171.946644 
L 276.581309 171.688289 
L 277.250443 171.171578 
L 277.455879 170.913222 
L 277.860882 170.654867 
L 276.287829 169.621444 
L 275.507172 168.846378 
L 275.307606 168.588022 
L 275.495433 168.329667 
L 275.231301 168.071311 
L 274.732385 167.812956 
L 274.708906 167.5546 
L 274.06325 167.296244 
L 274.538688 167.037889 
L 274.450644 166.779533 
L 273.018462 164.971044 
L 273.018462 164.712689 
L 272.8952 164.454333 
L 271.738889 163.420911 
L 272.425632 163.162556 
L 270.940623 162.9042 
L 270.324315 162.645844 
L 270.594317 162.387489 
L 270.494534 162.129133 
L 268.956698 160.320644 
L 268.739523 160.062289 
L 268.680827 159.803933 
L 268.962568 159.545578 
L 268.663218 158.770511 
L 268.123215 157.478733 
L 268.404956 157.220378 
L 268.422565 156.962022 
L 269.173874 156.186956 
L 267.342558 155.153533 
L 269.355831 154.895178 
L 267.412994 154.636822 
L 261.354979 154.378467 
L 261.156 154.120111 
L 261.18168 112.008156 
L 262.221919 111.233089 
L 263.100012 110.458022 
L 263.693428 109.682956 
L 263.924103 109.166244 
L 263.486231 108.391178 
L 264.425954 105.032556 
L 264.77813 104.7742 
L 275.436737 103.999133 
L 279.844806 103.482422 
L 277.948926 103.224067 
L 277.344357 102.965711 
L 278.870453 102.449 
L 278.940888 102.190644 
L 279.328282 101.932289 
L 280.9659 101.415578 
L 281.25938 101.157222 
L 286.060713 100.1238 
L 287.040936 99.865444 
L 293.667714 99.090378 
L 296.444035 98.832022 
L 302.753855 98.573667 
L 324.488984 98.056956 
L 327.541176 97.7986 
L 305.483219 97.281889 
L 314.164358 97.023533 
L 314.604578 96.765178 
L 306.275615 96.506822 
L 265.318133 96.248467 
L 265.11035 95.990111 
L 265.294068 95.731756 
L 270.482794 94.956689 
L 272.349327 94.439978 
L 272.642807 94.181622 
L 274.028033 93.406556 
L 277.620228 92.631489 
L 286.260279 91.598067 
L 294.9062 91.339711 
L 312.092389 91.081356 
L 294.548154 90.823 
L 300.670147 90.306289 
L 301.497761 90.047933 
L 293.415322 89.789578 
L 293.937716 89.531222 
L 300.828626 89.272867 
L 302.483854 89.014511 
L 301.433195 88.4978 
L 298.451438 88.239444 
L 290.979438 87.981089 
L 287.293329 87.722733 
L 289.564864 87.206022 
L 288.960295 86.947667 
L 288.925078 86.689311 
L 287.105502 86.1726 
L 285.285926 85.397533 
L 285.092229 85.139178 
L 287.13485 84.105756 
L 287.604418 83.8474 
L 293.462278 83.589044 
L 284.669618 83.330689 
L 281.752426 83.072333 
L 280.555028 82.813978 
L 279.152194 82.297267 
L 278.342189 82.038911 
L 278.306971 81.780556 
L 280.866117 81.005489 
L 282.462648 80.747133 
L 281.969602 80.488778 
L 274.95543 80.230422 
L 273.135854 79.972067 
L 272.654546 78.680289 
L 282.116342 78.421933 
L 276.933485 77.388511 
L 276.070654 77.130156 
L 274.679558 76.8718 
L 274.022163 76.613444 
L 273.91651 76.096733 
L 273.92825 75.838378 
L 274.110207 75.580022 
L 276.358264 75.321667 
L 283.560263 74.804956 
L 281.752426 74.5466 
L 281.100901 74.288244 
L 283.795047 74.029889 
L 296.948821 73.771533 
L 281.805253 73.513178 
L 279.293064 73.254822 
L 277.103703 72.2214 
L 275.83 71.446333 
L 276.26435 71.187978 
L 277.749359 70.671267 
L 275.119778 69.8962 
L 273.394116 68.604422 
L 271.515844 66.279222 
L 271.57454 66.020867 
L 272.484328 65.762511 
L 272.654546 65.504156 
L 272.255414 64.729089 
L 271.57454 64.470733 
L 271.621497 64.212378 
L 270.488664 63.437311 
L 269.725616 62.9206 
L 269.625833 62.403889 
L 269.432136 62.145533 
L 268.950829 61.887178 
L 269.408658 61.628822 
L 269.537789 60.853756 
L 269.267787 60.5954 
L 269.179743 59.820333 
L 269.925182 58.528556 
L 270.69997 58.011844 
L 270.506273 55.686644 
L 271.797585 54.911578 
L 275.119778 54.394867 
L 274.50934 54.136511 
L 273.810858 53.6198 
L 271.146059 53.361444 
L 266.096442 53.103089 
L 265.927985 52.844733 
L 267.03147 49.744467 
L 266.450966 49.486111 
L 268.20539 49.227756 
L 268.076258 48.9694 
L 268.804089 48.194333 
L 269.238439 47.935978 
L 271.844542 47.677622 
L 276.000218 47.419267 
L 278.888062 46.902556 
L 276.780875 46.6442 
L 281.282858 46.385844 
L 294.718373 45.869133 
L 296.725776 45.610778 
L 289.048339 45.094067 
L 276.763266 43.802289 
L 272.942157 43.285578 
L 272.343458 42.510511 
L 272.16737 42.252156 
L 272.278892 41.9938 
L 271.844542 41.477089 
L 271.328017 41.218733 
L 271.14019 40.960378 
L 271.187146 40.443667 
L 270.629534 40.185311 
L 270.940623 39.926956 
L 269.138656 37.860111 
L 268.029302 36.826689 
L 268.011693 36.568333 
L 267.847344 36.309978 
L 266.834251 35.534911 
L 267.254514 35.276556 
L 266.757946 35.0182 
L 267.066687 34.759844 
L 265.825267 32.951356 
L 265.643896 32.434644 
L 264.825674 30.884511 
L 265.834658 30.3678 
L 265.595178 30.109444 
L 264.344954 29.592733 
L 261.211245 28.817667 
L 261.156 28.0426 
L 261.163865 11.249489 
L 261.28114 10.991133 
L 262.008853 10.216067 
L 262.494856 9.441 
L 262.751944 8.665933 
L 262.459051 8.149222 
L 263.019598 4.015533 
L 265.175502 3.240467 
L 265.532374 2.982111 
L 265.689679 2.723756 
L 264.98474 2.4654 
L 265.119741 1.690333 
L 265.632744 -0.634867 
L 265.581429 -1 
L 265.581429 -1 
" style="fill:none;stroke:#ff0000;stroke-linecap:square;stroke-width:1.2;"/>
   </g>
   <g id="line2d_45">
    <path clip-path="url(#p7fdbf12b9c)" d="M 261.156 130.222222 
L 349.2 130.222222 
" style="fill:none;stroke:#808080;stroke-dasharray:4.44,1.92;stroke-dashoffset:0;stroke-width:1.2;"/>
   </g>
   <g id="line2d_46">
    <path clip-path="url(#p7fdbf12b9c)" d="M 261.156 259.4 
L 261.156 26.88 
" style="fill:none;stroke:#808080;stroke-dasharray:4.44,1.92;stroke-dashoffset:0;stroke-width:1.2;"/>
   </g>
   <g id="patch_8">
    <path d="M 261.156 259.4 
L 261.156 26.88 
" style="fill:none;stroke:#000000;stroke-linecap:square;stroke-linejoin:miter;stroke-width:0.8;"/>
   </g>
   <g id="patch_9">
    <path d="M 349.2 259.4 
L 349.2 26.88 
" style="fill:none;stroke:#000000;stroke-linecap:square;stroke-linejoin:miter;stroke-width:0.8;"/>
   </g>
   <g id="patch_10">
    <path d="M 261.156 259.4 
L 349.2 259.4 
" style="fill:none;stroke:#000000;stroke-linecap:square;stroke-linejoin:miter;stroke-width:0.8;"/>
   </g>
   <g id="patch_11">
    <path d="M 261.156 26.88 
L 349.2 26.88 
" style="fill:none;stroke:#000000;stroke-linecap:square;stroke-linejoin:miter;stroke-width:0.8;"/>
   </g>
  </g>
 </g>
 <defs>
  <clipPath id="p104ea5dbbb">
   <rect height="232.52" width="193.718" x="49.808" y="26.88"/>
  </clipPath>
  <clipPath id="p7fdbf12b9c">
   <rect height="232.52" width="88.044" x="261.156" y="26.88"/>
  </clipPath>
 </defs>
</svg>
